<mxfile host="app.diagrams.net" agent="Mozilla/5.0 (Windows NT 10.0; Win64; x64) AppleWebKit/537.36 (KHTML, like Gecko) Chrome/130.0.0.0 Safari/537.36" version="24.7.17">
  <diagram name="Page-1" id="2cc2dc42-3aac-f2a9-1cec-7a8b7cbee084">
    <mxGraphModel dx="1400" dy="696" grid="1" gridSize="10" guides="1" tooltips="1" connect="1" arrows="1" fold="1" page="1" pageScale="1" pageWidth="1100" pageHeight="850" background="none" math="0" shadow="0">
      <root>
        <mxCell id="0" />
        <mxCell id="1" parent="0" />
        <mxCell id="miHfUIq8pygFA35LCqwb-13" value="" style="rounded=0;whiteSpace=wrap;html=1;rotation=90;" vertex="1" parent="1">
          <mxGeometry x="-145" y="465" width="1455" height="925" as="geometry" />
        </mxCell>
        <mxCell id="miHfUIq8pygFA35LCqwb-3" value="" style="rounded=0;whiteSpace=wrap;html=1;" vertex="1" parent="1">
          <mxGeometry x="140" y="230" width="110" height="110" as="geometry" />
        </mxCell>
        <mxCell id="miHfUIq8pygFA35LCqwb-4" value="" style="endArrow=none;html=1;rounded=0;entryX=1;entryY=0;entryDx=0;entryDy=0;" edge="1" parent="1" target="miHfUIq8pygFA35LCqwb-3">
          <mxGeometry width="50" height="50" relative="1" as="geometry">
            <mxPoint x="140" y="340" as="sourcePoint" />
            <mxPoint x="190" y="290" as="targetPoint" />
          </mxGeometry>
        </mxCell>
        <mxCell id="miHfUIq8pygFA35LCqwb-5" value="" style="endArrow=none;html=1;rounded=0;entryX=0;entryY=0;entryDx=0;entryDy=0;exitX=1;exitY=1;exitDx=0;exitDy=0;" edge="1" parent="1" source="miHfUIq8pygFA35LCqwb-3" target="miHfUIq8pygFA35LCqwb-3">
          <mxGeometry width="50" height="50" relative="1" as="geometry">
            <mxPoint x="160" y="290" as="sourcePoint" />
            <mxPoint x="210" y="250" as="targetPoint" />
          </mxGeometry>
        </mxCell>
        <mxCell id="miHfUIq8pygFA35LCqwb-6" value="" style="rounded=0;whiteSpace=wrap;html=1;" vertex="1" parent="1">
          <mxGeometry x="130" y="1165" width="280" height="285" as="geometry" />
        </mxCell>
        <mxCell id="miHfUIq8pygFA35LCqwb-7" value="" style="rounded=0;whiteSpace=wrap;html=1;" vertex="1" parent="1">
          <mxGeometry x="750" y="850" width="280" height="280" as="geometry" />
        </mxCell>
        <mxCell id="miHfUIq8pygFA35LCqwb-8" value="" style="rounded=0;whiteSpace=wrap;html=1;" vertex="1" parent="1">
          <mxGeometry x="130" y="530" width="280" height="280" as="geometry" />
        </mxCell>
        <mxCell id="miHfUIq8pygFA35LCqwb-9" value="" style="rounded=0;whiteSpace=wrap;html=1;" vertex="1" parent="1">
          <mxGeometry x="130" y="400" width="900" height="110" as="geometry" />
        </mxCell>
        <mxCell id="miHfUIq8pygFA35LCqwb-14" value="" style="endArrow=none;html=1;rounded=0;exitX=1;exitY=1;exitDx=0;exitDy=0;entryX=0;entryY=0;entryDx=0;entryDy=0;" edge="1" parent="1" source="miHfUIq8pygFA35LCqwb-8" target="miHfUIq8pygFA35LCqwb-8">
          <mxGeometry width="50" height="50" relative="1" as="geometry">
            <mxPoint x="280" y="780" as="sourcePoint" />
            <mxPoint x="330" y="730" as="targetPoint" />
          </mxGeometry>
        </mxCell>
        <mxCell id="miHfUIq8pygFA35LCqwb-15" value="" style="endArrow=none;html=1;rounded=0;entryX=0;entryY=0;entryDx=0;entryDy=0;exitX=1;exitY=1;exitDx=0;exitDy=0;" edge="1" parent="1" source="miHfUIq8pygFA35LCqwb-6" target="miHfUIq8pygFA35LCqwb-6">
          <mxGeometry width="50" height="50" relative="1" as="geometry">
            <mxPoint x="230" y="1325" as="sourcePoint" />
            <mxPoint x="280" y="1275" as="targetPoint" />
          </mxGeometry>
        </mxCell>
        <mxCell id="miHfUIq8pygFA35LCqwb-16" value="" style="endArrow=none;html=1;rounded=0;entryX=0;entryY=0;entryDx=0;entryDy=0;exitX=1;exitY=1;exitDx=0;exitDy=0;" edge="1" parent="1" source="miHfUIq8pygFA35LCqwb-7" target="miHfUIq8pygFA35LCqwb-7">
          <mxGeometry width="50" height="50" relative="1" as="geometry">
            <mxPoint x="800" y="990" as="sourcePoint" />
            <mxPoint x="850" y="940" as="targetPoint" />
          </mxGeometry>
        </mxCell>
        <mxCell id="miHfUIq8pygFA35LCqwb-17" value="" style="endArrow=none;html=1;rounded=0;exitX=0.037;exitY=1.004;exitDx=0;exitDy=0;exitPerimeter=0;" edge="1" parent="1" source="miHfUIq8pygFA35LCqwb-6">
          <mxGeometry width="50" height="50" relative="1" as="geometry">
            <mxPoint x="360" y="1215" as="sourcePoint" />
            <mxPoint x="410" y="1165" as="targetPoint" />
          </mxGeometry>
        </mxCell>
        <mxCell id="miHfUIq8pygFA35LCqwb-18" value="" style="endArrow=none;html=1;rounded=0;entryX=1;entryY=0;entryDx=0;entryDy=0;" edge="1" parent="1" target="miHfUIq8pygFA35LCqwb-7">
          <mxGeometry width="50" height="50" relative="1" as="geometry">
            <mxPoint x="750" y="1130" as="sourcePoint" />
            <mxPoint x="800" y="1080" as="targetPoint" />
          </mxGeometry>
        </mxCell>
        <mxCell id="miHfUIq8pygFA35LCqwb-19" value="" style="endArrow=none;html=1;rounded=0;entryX=1;entryY=0;entryDx=0;entryDy=0;" edge="1" parent="1" target="miHfUIq8pygFA35LCqwb-8">
          <mxGeometry width="50" height="50" relative="1" as="geometry">
            <mxPoint x="130" y="810" as="sourcePoint" />
            <mxPoint x="180" y="760" as="targetPoint" />
          </mxGeometry>
        </mxCell>
        <mxCell id="miHfUIq8pygFA35LCqwb-20" value="Contact Us" style="shape=parallelogram;perimeter=parallelogramPerimeter;whiteSpace=wrap;html=1;fixedSize=1;" vertex="1" parent="1">
          <mxGeometry x="860" y="255" width="120" height="60" as="geometry" />
        </mxCell>
        <mxCell id="miHfUIq8pygFA35LCqwb-21" value="Site Map" style="shape=parallelogram;perimeter=parallelogramPerimeter;whiteSpace=wrap;html=1;fixedSize=1;" vertex="1" parent="1">
          <mxGeometry x="680" y="255" width="120" height="60" as="geometry" />
        </mxCell>
        <mxCell id="miHfUIq8pygFA35LCqwb-22" value="Rivers" style="shape=parallelogram;perimeter=parallelogramPerimeter;whiteSpace=wrap;html=1;fixedSize=1;" vertex="1" parent="1">
          <mxGeometry x="510" y="255" width="120" height="60" as="geometry" />
        </mxCell>
        <mxCell id="miHfUIq8pygFA35LCqwb-23" value="Home" style="shape=parallelogram;perimeter=parallelogramPerimeter;whiteSpace=wrap;html=1;fixedSize=1;" vertex="1" parent="1">
          <mxGeometry x="330" y="255" width="120" height="60" as="geometry" />
        </mxCell>
        <mxCell id="miHfUIq8pygFA35LCqwb-24" value="Rivers 3 ......................................................................................................." style="shape=parallelogram;perimeter=parallelogramPerimeter;whiteSpace=wrap;html=1;fixedSize=1;" vertex="1" parent="1">
          <mxGeometry x="450" y="1150" width="580" height="300" as="geometry" />
        </mxCell>
        <mxCell id="miHfUIq8pygFA35LCqwb-25" value="Rivers 1 ......................................................................................................................" style="shape=parallelogram;perimeter=parallelogramPerimeter;whiteSpace=wrap;html=1;fixedSize=1;" vertex="1" parent="1">
          <mxGeometry x="440" y="530" width="590" height="280" as="geometry" />
        </mxCell>
        <mxCell id="miHfUIq8pygFA35LCqwb-26" value="Rivers 2 ..............................................................................................................." style="shape=parallelogram;perimeter=parallelogramPerimeter;whiteSpace=wrap;html=1;fixedSize=1;" vertex="1" parent="1">
          <mxGeometry x="130" y="860" width="580" height="270" as="geometry" />
        </mxCell>
        <mxCell id="miHfUIq8pygFA35LCqwb-28" value="" style="endArrow=none;html=1;rounded=0;entryX=1;entryY=1;entryDx=0;entryDy=0;exitX=0;exitY=0;exitDx=0;exitDy=0;" edge="1" parent="1" source="miHfUIq8pygFA35LCqwb-9" target="miHfUIq8pygFA35LCqwb-9">
          <mxGeometry width="50" height="50" relative="1" as="geometry">
            <mxPoint x="670" y="640" as="sourcePoint" />
            <mxPoint x="720" y="590" as="targetPoint" />
          </mxGeometry>
        </mxCell>
        <mxCell id="miHfUIq8pygFA35LCqwb-29" value="" style="endArrow=none;html=1;rounded=0;exitX=0;exitY=1;exitDx=0;exitDy=0;entryX=1;entryY=0;entryDx=0;entryDy=0;" edge="1" parent="1" source="miHfUIq8pygFA35LCqwb-9" target="miHfUIq8pygFA35LCqwb-9">
          <mxGeometry width="50" height="50" relative="1" as="geometry">
            <mxPoint x="670" y="640" as="sourcePoint" />
            <mxPoint x="720" y="590" as="targetPoint" />
          </mxGeometry>
        </mxCell>
        <mxCell id="miHfUIq8pygFA35LCqwb-30" value="Rivers" style="rounded=0;whiteSpace=wrap;html=1;" vertex="1" parent="1">
          <mxGeometry x="520" y="400" width="120" height="40" as="geometry" />
        </mxCell>
        <mxCell id="miHfUIq8pygFA35LCqwb-31" value="@2024-Dry Oar-Tremelling&amp;nbsp; &amp;nbsp;Site Map&amp;nbsp; &amp;nbsp; Contact" style="rounded=0;whiteSpace=wrap;html=1;" vertex="1" parent="1">
          <mxGeometry x="135" y="1470" width="885" height="170" as="geometry" />
        </mxCell>
      </root>
    </mxGraphModel>
  </diagram>
</mxfile>
